<svg width="140" height="30" viewBox="0 0 140 30" fill="none" xmlns="http://www.w3.org/2000/svg">
<path d="M9.37955 11.6944C9.4793 11.6944 9.55382 11.6704 9.60427 11.6199L9.82898 11.4709C10.2027 11.2714 10.6889 11.1716 11.2862 11.1716H16.6301C16.8296 11.1716 16.9534 11.1407 17.0038 11.0788C17.0531 11.0169 17.0784 10.8988 17.0784 10.7234V10.5365C17.0784 9.41518 16.4432 8.85454 15.1717 8.85454H14.0126C13.4141 8.85454 12.9911 8.67454 12.7423 8.31224C12.4935 7.95109 12.3685 7.64612 12.3685 7.39618C12.3685 6.52484 12.8661 6.08801 13.8635 6.08801C14.3863 6.08801 14.8851 6.21298 15.3586 6.46178C15.6326 6.61082 15.8195 6.68649 15.9192 6.68649C16.1439 6.68649 16.2552 6.46177 16.2552 6.01349C16.2552 5.36571 15.9811 4.8303 15.4331 4.4061C14.8851 3.98303 14.1995 3.78353 13.3774 3.80761C12.8546 3.80761 12.3307 3.9452 11.8079 4.21921C11.285 4.49323 10.8425 4.89221 10.4813 5.41501C10.1202 5.93782 9.93905 6.59821 9.93905 7.39618C9.93905 7.59568 9.98834 7.84447 10.0881 8.14371C10.1878 8.44295 10.3243 8.72957 10.4997 9.00359C9.50337 9.2776 9.00464 9.86346 9.00464 10.76C9.00464 11.0845 9.05394 11.3333 9.15369 11.5076C9.17777 11.6325 9.25343 11.6944 9.3784 11.6944H9.37955Z" fill="#17642F"/>
<path d="M46.304 5.45254C46.977 5.45254 47.5491 5.21635 48.0237 4.74285C48.4972 4.26934 48.7334 3.68463 48.7334 2.9864C48.7334 2.28818 48.4961 1.67249 48.0237 1.2116C47.5502 0.750701 46.977 0.520264 46.304 0.520264C45.631 0.520264 45.0898 0.750701 44.6037 1.2116C44.1176 1.67249 43.8745 2.2641 43.8745 2.9864C43.8745 3.7087 44.1176 4.27049 44.6037 4.74285C45.0898 5.21635 45.6562 5.45254 46.304 5.45254Z" fill="#17642F"/>
<path d="M52.5456 23.7659C51.9231 23.7659 51.3808 23.9963 50.9199 24.4572C50.459 24.9181 50.2285 25.4719 50.2285 26.1208C50.2285 26.7697 50.459 27.3602 50.9199 27.8211C51.3808 28.282 51.9219 28.5124 52.5456 28.5124C53.1693 28.5124 53.7414 28.282 54.1897 27.8211C54.638 27.3602 54.8627 26.7938 54.8627 26.1208C54.8627 25.4478 54.638 24.9181 54.1897 24.4572C53.7414 23.9963 53.1934 23.7659 52.5456 23.7659Z" fill="#17642F"/>
<path d="M57.7404 23.7659C57.0927 23.7659 56.5377 23.9963 56.0768 24.4572C55.6159 24.9181 55.3855 25.4719 55.3855 26.1208C55.3855 26.7697 55.6159 27.3602 56.0768 27.8211C56.5377 28.282 57.0915 28.5124 57.7404 28.5124C58.3894 28.5124 58.8996 28.282 59.3478 27.8211C59.7961 27.3602 60.0208 26.7938 60.0208 26.1208C60.0208 25.4478 59.7961 24.9181 59.3478 24.4572C58.8996 23.9963 58.363 23.7659 57.7404 23.7659Z" fill="#17642F"/>
<path d="M71.0824 0.705909H70.6341C70.1606 0.705909 69.8178 0.724252 69.6068 0.762086C69.3947 0.799921 69.1264 0.868702 68.8031 0.967302C67.3826 1.41559 66.6729 2.64923 66.6729 4.66708V14.0856C66.6729 14.8332 66.5043 15.4248 66.1684 15.8604C65.8325 16.2961 65.3143 16.514 64.6172 16.514H62.2256C61.9768 16.514 61.689 16.4578 61.3657 16.3454C61.0412 16.2331 60.7615 16.0095 60.5253 15.6724C60.288 15.3365 60.1699 14.832 60.1699 14.159V7.88075C60.1699 7.53221 59.9704 7.35795 59.5714 7.35795H59.1231C58.6496 7.35795 58.3068 7.37055 58.0959 7.39578C57.8838 7.421 57.6155 7.48291 57.2922 7.58266C55.8716 8.08139 55.162 9.32649 55.162 11.3203V14.0856C55.162 14.8332 54.9934 15.4248 54.6575 15.8604C54.3216 16.2961 53.8033 16.514 53.1063 16.514H50.7892C50.5404 16.514 50.2526 16.4578 49.9293 16.3454C49.6048 16.2331 49.3251 16.0095 49.0889 15.6724C48.8516 15.3365 48.7335 14.832 48.7335 14.159V7.88075C48.7335 7.53221 48.534 7.35795 48.135 7.35795H47.6867C47.2132 7.35795 46.8704 7.37055 46.6594 7.39578C46.4473 7.421 46.1791 7.48291 45.8557 7.58266C44.4352 8.08139 43.7255 9.32649 43.7255 11.3203V14.0856C43.7255 14.8332 43.557 15.4248 43.2211 15.8604C42.8851 16.2961 42.3669 16.514 41.6698 16.514H27.6549C27.4061 16.514 27.1253 16.4578 26.8134 16.3454C26.5016 16.2331 26.2275 16.0095 25.9914 15.6724C25.754 15.3365 25.6233 14.832 25.5993 14.159V1.22756C25.5993 0.879023 25.4124 0.704761 25.0386 0.704761H24.5903C24.1168 0.704761 23.7683 0.723104 23.5436 0.760939C23.3188 0.798773 23.0574 0.867568 22.7582 0.966168C21.3377 1.41445 20.628 2.64808 20.628 4.66594V14.0845C20.628 14.832 20.4595 15.4236 20.1235 15.8593C19.7876 16.295 19.2694 16.5128 18.5723 16.5128H7.58418C6.66239 16.5128 5.94008 16.2571 5.41613 15.7469C4.89332 15.2367 4.63078 14.5328 4.63078 13.6351C4.63078 12.9873 4.74313 12.4519 4.9667 12.0277C5.19142 11.6046 5.36454 11.2675 5.48951 11.0187C5.53881 10.919 5.59498 10.794 5.65804 10.645C5.71995 10.4959 5.75206 10.371 5.75206 10.2712C5.75206 9.89745 5.53996 9.71057 5.11689 9.71057C4.96785 9.71057 4.78097 9.74842 4.55625 9.82294C3.31 10.1474 2.29534 10.8319 1.50998 11.8786C0.72462 12.9254 0.33252 14.1212 0.33252 15.466C0.33252 16.6126 0.631759 17.6398 1.22909 18.549C1.82757 19.4593 2.65534 20.1748 3.71472 20.6976C4.77294 21.2204 5.98824 21.4829 7.35831 21.4829H18.4577C19.454 21.4829 20.3448 21.3591 21.1302 21.1092C21.9155 20.8604 22.6069 20.4992 23.2042 20.0257C23.6273 20.4247 24.1695 20.7675 24.8299 21.053C25.4903 21.3396 26.2688 21.4829 27.1654 21.4829H41.5541C42.5504 21.4829 43.4412 21.3591 44.2266 21.1092C45.0119 20.8604 45.7033 20.4992 46.3006 20.0257C46.7237 20.4247 47.266 20.7675 47.9263 21.053C48.5867 21.3396 49.3778 21.4829 50.2996 21.4829H52.9905C53.9868 21.4829 54.8776 21.3591 55.663 21.1092C56.4483 20.8604 57.1397 20.4992 57.737 20.0257C58.1601 20.4247 58.7024 20.7675 59.3628 21.053C60.0231 21.3396 60.8142 21.4829 61.736 21.4829H64.5014C66.8426 21.4829 68.6242 20.8099 69.8453 19.4651C71.0663 18.1191 71.6763 16.3511 71.6763 14.1579V1.22641C71.6763 0.877875 71.4768 0.703613 71.0778 0.703613L71.0824 0.705909Z" fill="#17642F"/>
<path d="M122.731 7.35826H122.283C121.809 7.35826 121.461 7.37087 121.236 7.39609C121.012 7.42132 120.75 7.48323 120.451 7.58298C119.03 8.08171 118.321 9.32681 118.321 11.3206V14.086C118.321 14.8335 118.152 15.4251 117.816 15.8608C117.48 16.2964 116.962 16.5143 116.265 16.5143H102.25C102.001 16.5143 101.714 16.4581 101.39 16.3457C101.066 16.2334 100.786 16.0098 100.549 15.6727C100.311 15.3368 100.193 14.8323 100.193 14.1593V1.22788C100.193 0.87934 99.9938 0.705078 99.5948 0.705078H99.1832C98.7097 0.705078 98.3611 0.723421 98.1364 0.761256C97.9117 0.799091 97.6503 0.867886 97.3511 0.966485C95.9305 1.41477 95.2208 2.6484 95.2208 4.66625V18.5688C95.2208 20.4881 94.7599 22.0003 93.8381 23.1101C92.9164 24.2188 91.6082 24.7737 89.9137 24.7737C88.2191 24.7737 86.9431 24.2188 86.0087 23.1101C85.0743 22.0014 84.6076 20.4881 84.6076 18.5688C84.6076 17.3982 84.7876 16.3583 85.1499 15.448C85.5111 14.5388 85.8539 13.8223 86.1772 13.2995C86.2517 13.1756 86.3136 13.0747 86.3641 13.0002C86.4134 12.9257 86.4386 12.8512 86.4386 12.7755C86.4386 12.3777 86.2013 12.177 85.7289 12.177C85.6039 12.177 85.4044 12.2149 85.1304 12.2894C83.6354 12.6391 82.3834 13.4611 81.3745 14.7555C80.3655 16.0511 79.8611 17.6459 79.8611 19.5388C79.8611 21.4316 80.2784 23.0952 81.1131 24.6029C81.9477 26.1105 83.1252 27.2995 84.6443 28.172C86.1634 29.0433 87.9199 29.4801 89.9137 29.4801C92.5793 29.4801 94.784 28.7383 96.529 27.2559C98.2729 25.7735 99.4067 23.7613 99.9295 21.2207C100.204 21.2952 100.496 21.3583 100.808 21.4076C101.118 21.458 101.436 21.4821 101.761 21.4821H116.149C118.466 21.4821 120.235 20.8091 121.456 19.4642C122.677 18.1182 123.287 16.3503 123.287 14.157V7.87877C123.287 7.53023 123.1 7.35597 122.727 7.35597L122.731 7.35826Z" fill="#FE7D13"/>
<path d="M115.668 23.7659C115.045 23.7659 114.503 23.9963 114.042 24.4572C113.581 24.9181 113.351 25.4719 113.351 26.1208C113.351 26.7697 113.581 27.3602 114.042 27.8211C114.503 28.282 115.044 28.5124 115.668 28.5124C116.292 28.5124 116.864 28.282 117.312 27.8211C117.76 27.3602 117.985 26.7938 117.985 26.1208C117.985 25.4478 117.76 24.9181 117.312 24.4572C116.864 23.9963 116.316 23.7659 115.668 23.7659Z" fill="#FE7D13"/>
<path d="M120.863 23.7659C120.215 23.7659 119.66 23.9963 119.199 24.4572C118.738 24.9181 118.508 25.4719 118.508 26.1208C118.508 26.7697 118.738 27.3602 119.199 27.8211C119.66 28.282 120.214 28.5124 120.863 28.5124C121.512 28.5124 122.022 28.282 122.47 27.8211C122.918 27.3602 123.143 26.7938 123.143 26.1208C123.143 25.4478 122.918 24.9181 122.47 24.4572C122.022 23.9963 121.485 23.7659 120.863 23.7659Z" fill="#FE7D13"/>
<path d="M138.802 10.3664C138.279 9.23248 137.543 8.3359 136.597 7.67551C135.65 7.01512 134.541 6.67232 133.271 6.6471C132.598 6.62302 131.963 6.72162 131.365 6.94633C130.766 7.17105 130.256 7.4829 129.832 7.88074C129.433 8.23042 129.102 8.63514 128.841 9.09489C128.58 9.55578 128.424 10.0729 128.374 10.6461C128.349 11.0199 128.38 11.3375 128.467 11.5989C128.554 11.8603 128.734 12.0047 129.01 12.0288C129.159 12.0288 129.284 11.9978 129.383 11.9359C129.483 11.874 129.62 11.8178 129.795 11.7674C130.218 11.6184 130.573 11.506 130.86 11.4315C131.147 11.3569 131.526 11.3317 132 11.357C132.796 11.3822 133.413 11.6505 133.85 12.1606C134.286 12.672 134.505 13.3003 134.505 14.0478C134.505 14.7208 134.311 15.2998 133.926 15.7859C133.539 16.272 133.022 16.5151 132.375 16.5151H130.431C129.161 16.5151 128.145 16.8396 127.385 17.4873C126.625 18.1351 126.245 19.0076 126.245 20.1037V20.5898C126.245 20.9888 126.314 21.2376 126.451 21.3373C126.587 21.437 126.855 21.4864 127.254 21.4864H132.411C133.807 21.4864 135.046 21.1756 136.129 20.5519C137.213 19.9294 138.06 19.0752 138.671 17.9918C139.281 16.9083 139.587 15.6816 139.587 14.3103C139.587 12.8153 139.326 11.5014 138.802 10.3675V10.3664Z" fill="#FE7D13"/>
</svg>
