<svg width="135" height="26" viewBox="0 0 135 26" fill="none" xmlns="http://www.w3.org/2000/svg">
<path d="M22.6658 13.0929C22.6658 20.3757 17.6239 25.3832 9.7808 25.3832H0.572266V0.803711H9.7808C17.6239 0.803711 22.6658 5.77551 22.6658 13.0929ZM9.39543 20.1997C13.9117 20.1997 16.5736 17.6091 16.5736 13.0917C16.5736 8.5743 13.9128 5.91354 9.39543 5.91354H6.55982V20.1986H9.39543V20.1997Z" fill="#FE7D13"/>
<path d="M33.9627 25.6273C28.9299 25.6273 25.3086 22.2522 25.3086 16.8202C25.3086 11.3883 28.8678 8.01318 33.9627 8.01318C39.0575 8.01318 42.4936 11.3273 42.4936 16.5442C42.4936 17.0354 42.4626 17.5565 42.4016 18.0787H30.5254C30.7095 20.3184 32.0899 21.3618 33.7786 21.3618C35.251 21.3618 36.0804 20.6256 36.5095 19.7042H42.0945C41.2662 23.0494 38.2281 25.6262 33.9627 25.6262V25.6273ZM30.5565 15.1637H37.1238C37.1238 13.2921 35.6514 12.2177 33.9017 12.2177C32.152 12.2177 30.8636 13.2611 30.5565 15.1637Z" fill="#FE7D13"/>
<path d="M51.7607 8.01318C54.3075 8.01318 56.1182 9.17965 57.0385 10.6831V8.25936H62.2863V25.3823H57.0385V22.9585C56.0871 24.462 54.2765 25.6285 51.7296 25.6285C47.5561 25.6285 44.2109 22.1912 44.2109 16.7903C44.2109 11.3895 47.5561 8.01434 51.7595 8.01434L51.7607 8.01318ZM53.2952 12.5858C51.3316 12.5858 49.5508 14.0583 49.5508 16.7903C49.5508 19.5224 51.3304 21.0558 53.2952 21.0558C55.26 21.0558 57.0385 19.5523 57.0385 16.8214C57.0385 14.0905 55.2888 12.587 53.2952 12.587V12.5858Z" fill="#FE7D13"/>
<path d="M66.0903 0.802734H71.3382V25.3834H66.0903V0.802734Z" fill="#FE7D13"/>
<path d="M80.3908 0.802665V21.3318H87.2653V25.3821H75.144V0.801514H80.3919L80.3908 0.802665Z" fill="#17642F"/>
<path d="M89.2886 3.65552C89.2886 2.05999 90.547 0.801514 92.4187 0.801514C94.2903 0.801514 95.5177 2.05999 95.5177 3.65552C95.5177 5.25105 94.2592 6.47848 92.4187 6.47848C90.5781 6.47848 89.2886 5.21999 89.2886 3.65552ZM89.7798 8.25921H95.0277V25.3821H89.7798V8.25921Z" fill="#17642F"/>
<path d="M110.647 16.0839C110.647 13.7522 109.359 12.4626 107.364 12.4626C105.369 12.4626 104.081 13.751 104.081 16.0839V25.3822H98.833V8.25925H104.081V10.53C105.124 9.0875 106.966 8.0752 109.267 8.0752C113.225 8.0752 115.864 10.7751 115.864 15.3787V25.3822H110.647V16.0839Z" fill="#17642F"/>
<path d="M119.514 0.802734H124.762V15.2258L129.947 8.26043H136.423L129.303 16.8524L136.484 25.3834H129.978L124.762 18.2029V25.3834H119.514V0.802734Z" fill="#17642F"/>
</svg>
